<?xml version="1.0" standalone="no"?>
<!DOCTYPE svg PUBLIC "-//W3C//DTD SVG 20010904//EN"
 "http://www.w3.org/TR/2001/REC-SVG-20010904/DTD/svg10.dtd">
<svg version="1.0" xmlns="http://www.w3.org/2000/svg"
 width="512.000000pt" height="512.000000pt" viewBox="0 0 512.000000 512.000000"
 preserveAspectRatio="xMidYMid meet">
<metadata>
Created by potrace 1.14, written by Peter Selinger 2001-2017
</metadata>
<g transform="translate(0.000000,512.000000) scale(0.100000,-0.100000)"
fill="#000000" stroke="none">
<path d="M2400 5084 c-536 -46 -965 -207 -1377 -515 -126 -95 -377 -346 -472
-472 -272 -364 -432 -750 -497 -1202 -24 -165 -24 -505 0 -670 65 -452 225
-838 497 -1202 94 -125 346 -377 469 -469 370 -277 748 -434 1205 -500 165
-24 505 -24 670 0 457 66 835 223 1205 500 122 91 375 344 466 466 277 370
434 748 500 1205 24 165 24 505 0 670 -66 457 -223 835 -500 1205 -91 122
-344 375 -466 466 -362 271 -741 431 -1174 495 -125 18 -428 32 -526 23z
m1530 -734 c95 -73 209 -177 297 -273 89 -97 195 -239 186 -248 -13 -12 -777
-531 -788 -535 -5 -2 -21 13 -35 33 -39 58 -168 191 -237 243 l-62 47 271 396
c148 218 274 397 279 397 6 0 46 -27 89 -60z m-1165 -825 c181 -37 353 -132
491 -269 191 -191 288 -427 288 -696 0 -269 -97 -505 -288 -696 -191 -191
-427 -288 -696 -288 -269 0 -505 97 -696 288 -191 191 -288 427 -288 696 0
628 571 1092 1189 965z m-1089 -1895 c44 -41 96 -86 117 -100 21 -14 35 -31
32 -38 -6 -16 -512 -761 -529 -780 -10 -10 -29 0 -97 51 -161 122 -313 273
-436 436 l-63 84 62 42 c35 23 216 146 402 273 l339 231 47 -62 c26 -34 83
-96 126 -137z"/>
<path d="M2486 2776 c-135 -50 -192 -197 -127 -324 40 -77 107 -116 201 -116
136 0 224 88 224 224 0 68 -16 113 -58 158 -53 59 -165 86 -240 58z"/>
</g>
</svg>
